<?xml version="1.0" encoding="UTF-8"?>
<!DOCTYPE svg PUBLIC "-//W3C//DTD SVG 1.1//EN" "http://www.w3.org/Graphics/SVG/1.1/DTD/svg11.dtd">
<!-- Creator: CorelDRAW -->
<svg xmlns="http://www.w3.org/2000/svg" xml:space="preserve" width="161.963mm" height="51.7392mm" version="1.1" style="shape-rendering:geometricPrecision; text-rendering:geometricPrecision; image-rendering:optimizeQuality; fill-rule:evenodd; clip-rule:evenodd"
viewBox="0 0 2806.89 896.66"
 xmlns:xlink="http://www.w3.org/1999/xlink"
 xmlns:xodm="http://www.corel.com/coreldraw/odm/2003">
 <defs>
  <style type="text/css">
   <![CDATA[
    .fil3 {fill:#273C52}
    .fil4 {fill:#E43738}
    .fil1 {fill:#E6353A}
    .fil2 {fill:white}
    .fil0 {fill:white;fill-rule:nonzero}
   ]]>
  </style>
 </defs>
 <g id="Слой_x0020_1">
  <metadata id="CorelCorpID_0Corel-Layer"/>
  <g id="_2724552864256">
   <g>
    <polygon class="fil0" points="1092.57,271.59 974.04,135.82 1060.11,135.82 1128.89,217.39 1198.86,135.82 1277.18,135.82 1161.95,271.59 1161.95,357.33 1092.57,357.33 "/>
    <path class="fil0" d="M1446.01 316.85l-134.3 0 -19.95 40.49 -70.57 -0 111.97 -221.56 89.92 0 118.53 221.56 -74.74 -0 -20.86 -40.49zm-68.46 -133.11l-41.09 83.09 83.96 0 -42.87 -83.09z"/>
    <path class="fil0" d="M1623.18 283.51l0 73.87 -69.38 0 0 -221.56 166.17 0c19.85,0 36.41,1.83 49.75,5.5 13.3,3.67 23.94,8.8 31.87,15.31 7.93,6.56 13.57,14.21 16.83,22.93 3.26,8.76 4.91,18.16 4.91,28.29l0 2.98c0,9.95 -1.7,19.3 -5.04,28.15 -3.39,8.85 -9.03,16.51 -16.97,23.07 -7.93,6.56 -18.52,11.78 -31.73,15.64 -13.21,3.85 -29.71,5.82 -49.57,5.82l-96.84 0zm0 -49.75l95.6 0c10.91,0 19.03,-1.97 24.26,-5.96 5.27,-3.99 7.89,-9.72 7.89,-17.29l0 -0.87c0,-7.52 -2.57,-13.34 -7.75,-17.42 -5.18,-4.08 -13.3,-6.1 -24.44,-6.1l-95.6 0 0 47.64 0.05 0z"/>
    <path class="fil0" d="M2006.15 131.92c23.25,0 43.19,1.79 59.84,5.37 16.69,3.58 30.81,8.34 42.41,14.31 11.6,5.96 20.91,12.75 27.83,20.4 6.92,7.66 12.38,15.5 16.23,23.52 3.9,8.02 6.42,16.09 7.61,24.12 1.19,8.02 1.79,15.31 1.79,21.87l0 8.94c0,6.56 -0.6,13.8 -1.79,21.73 -1.19,7.93 -3.67,16.05 -7.43,24.26 -3.76,8.25 -9.17,16.23 -16.23,23.98 -7.06,7.75 -16.32,14.63 -27.83,20.68 -11.51,6.05 -25.68,10.91 -42.41,14.58 -16.78,3.67 -36.78,5.5 -60.02,5.5l-12.79 0c-23.43,0 -43.51,-1.83 -60.3,-5.5 -16.78,-3.67 -30.91,-8.53 -42.41,-14.58 -11.51,-6.05 -20.82,-12.98 -27.83,-20.68 -7.06,-7.75 -12.47,-15.73 -16.23,-23.98 -3.76,-8.25 -6.24,-16.32 -7.43,-24.26 -1.19,-7.93 -1.79,-15.18 -1.79,-21.73l0 -8.94c0,-6.56 0.6,-13.85 1.79,-21.87 1.19,-8.02 3.67,-16.09 7.43,-24.12 3.76,-8.02 9.17,-15.87 16.23,-23.52 7.06,-7.66 16.32,-14.44 27.83,-20.4 11.51,-5.96 25.63,-10.73 42.41,-14.31 16.78,-3.58 36.87,-5.37 60.3,-5.37l12.79 0zm83.09 111.7c0,-6.33 -1.15,-12.98 -3.44,-19.81 -2.29,-6.83 -6.69,-13.11 -13.25,-18.75 -6.56,-5.64 -15.68,-10.32 -27.38,-13.99 -11.74,-3.67 -26.92,-5.5 -45.58,-5.5 -19.08,0 -34.44,1.83 -46.18,5.5 -11.74,3.67 -20.82,8.34 -27.24,13.99 -6.47,5.64 -10.78,11.92 -12.98,18.75 -2.2,6.83 -3.26,13.43 -3.26,19.81l0 3.58c0,6.37 1.15,13.07 3.44,20.08 2.29,7.06 6.69,13.53 13.25,19.49 6.56,5.96 15.68,10.87 27.38,14.72 11.69,3.85 26.92,5.82 45.58,5.82 18.66,0 33.79,-1.88 45.4,-5.64 11.6,-3.76 20.68,-8.58 27.24,-14.44 6.56,-5.87 11,-12.29 13.39,-19.35 2.38,-7.06 3.58,-13.76 3.58,-20.08l0 -4.17 0.05 0z"/>
    <polygon class="fil0" points="2264.31,135.82 2405.76,275.17 2405.76,135.82 2474.27,135.82 2474.27,357.38 2405.76,357.38 2255.36,210.56 2255.36,357.38 2186.9,357.38 2186.9,135.82 "/>
    <path class="fil0" d="M2711.28 316.85l-134.3 0 -19.95 40.49 -70.57 -0 111.97 -221.56 89.92 0 118.53 221.56 -74.74 -0 -20.86 -40.49zm-68.5 -133.11l-41.09 83.09 83.96 0 -42.87 -83.09z"/>
    <polygon class="fil0" points="997.56,493.15 1096.15,493.15 1172.68,631.03 1249.48,493.15 1344.49,493.15 1344.49,714.72 1275.98,714.72 1275.98,561.34 1188.73,714.72 1151.49,714.72 1064.23,561.34 1064.23,714.72 997.52,714.72 997.52,493.15 "/>
    <path class="fil0" d="M1581.5 674.18l-134.31 0 -19.95 40.49 -70.57 -0 111.97 -221.52 89.92 0 118.53 221.56 -74.74 0 -20.86 -40.53zm-68.51 -133.11l-41.09 83.09 83.96 0 -42.87 -83.09z"/>
    <polygon class="fil0" points="1689.3,493.15 1787.89,493.15 1864.42,631.03 1941.22,493.15 2036.23,493.15 2036.23,714.72 1967.73,714.72 1967.73,561.34 1880.47,714.72 1843.23,714.72 1755.98,561.34 1755.98,714.72 1689.26,714.72 1689.26,493.15 "/>
    <path class="fil0" d="M2273.25 674.18l-134.31 0 -19.95 40.49 -70.57 -0 111.97 -221.52 89.92 0 118.53 221.56 -74.74 0 -20.86 -40.53zm-68.51 -133.11l-41.09 83.09 83.96 0 -42.87 -83.09z"/>
   </g>
   <g>
    <path class="fil1" d="M448.31 0c247.61,0 448.31,200.7 448.31,448.31 0,247.61 -200.7,448.35 -448.31,448.35 -247.61,0 -448.31,-200.7 -448.31,-448.31 0,-247.61 200.7,-448.35 448.31,-448.35z"/>
    <path class="fil2" d="M448.31 192.64c141.18,0 255.66,114.49 255.66,255.66 0,141.22 -114.49,255.66 -255.66,255.66 -141.22,0 -255.66,-114.49 -255.66,-255.66 -0,-141.18 114.48,-255.66 255.66,-255.66l0 0z"/>
    <path class="fil3" d="M448.31 190.06c142.6,0 258.25,115.64 258.25,258.25 0,140.91 -112.85,255.45 -253.11,258.2 -1.7,0.05 -3.39,0.05 -5.13,0.05 -1.7,0 -3.44,-0.05 -5.13,-0.05 -107.11,-2.71 -193.09,-90.38 -193.09,-198.13 0,-109.45 88.73,-198.22 198.22,-198.22 109.45,0 198.22,88.73 198.22,198.22 0,107.76 -85.97,195.43 -193.09,198.13 -1.7,0.05 -3.39,0.05 -5.13,0.05 -1.7,0 -3.44,0 -5.13,-0.05 -140.27,-2.75 -253.11,-117.25 -253.11,-258.2 -0,-142.6 115.64,-258.25 258.25,-258.25l0 0z"/>
    <path class="fil3" d="M238.53 219.5c43.19,0 78.18,34.99 78.18,78.18 0,43.19 -34.99,78.18 -78.18,78.18 -43.19,0 -78.18,-34.99 -78.18,-78.18 -0,-43.15 35.03,-78.18 78.18,-78.18l0 0z"/>
    <path class="fil3" d="M658.13 219.5c-43.19,0 -78.18,34.99 -78.18,78.18 0,43.19 34.99,78.18 78.18,78.18 43.19,0 78.18,-34.99 78.18,-78.18 -0.05,-43.15 -35.03,-78.18 -78.18,-78.18l0 0z"/>
    <path class="fil4" d="M451.24 638.87c-11.56,-5.64 -39.07,-14.44 -38.88,-28.38 0.32,-26.6 38.88,-19.17 38.88,-3.67l0 0 0 0c0,-15.54 38.61,-22.93 38.88,3.67 0.18,13.99 -27.33,22.74 -38.88,28.38l0 0 0 0 0 0 0 0z"/>
    <path class="fil3" d="M347.84 500.67c20.27,0 38.38,9.31 50.25,23.94 -2.66,3.3 -5.64,6.28 -8.9,8.99 -11.23,-9.31 -25.63,-14.95 -41.36,-14.95 -15.73,0 -30.13,5.59 -41.36,14.95 -3.26,-2.71 -6.24,-5.73 -8.9,-8.99 11.87,-14.58 29.99,-23.94 50.25,-23.94z"/>
    <path class="fil3" d="M548.82 500.67c20.27,0 38.38,9.31 50.25,23.94 -2.66,3.3 -5.64,6.28 -8.9,8.99 -11.23,-9.31 -25.63,-14.95 -41.36,-14.95 -15.73,0 -30.13,5.59 -41.36,14.95 -3.26,-2.71 -6.24,-5.73 -8.9,-8.99 11.88,-14.58 29.99,-23.94 50.25,-23.94z"/>
    <path class="fil4" d="M309.33 551.66c29.9,0 29.9,23.94 0,23.94 -29.9,0 -29.9,-23.94 0,-23.94z"/>
    <path class="fil4" d="M602.33 551.66c29.9,0 29.9,23.94 0,23.94 -29.85,0 -29.85,-23.94 0,-23.94z"/>
   </g>
  </g>
 </g>
</svg>
